# File created by Blade
# Date/Time:  Wed Jan 21 17:05:57 2015
# Frame Rate: 120.000 fps
#------------------------------------------------------
:FULLY-SPECIFIED
:DEGREES
496
root 20.437938 31.752642 -16.518160 -186.391653 5.585180 -183.627834
Spine 32.143577 7.292750 -5.106167
Head -6.980909 -3.584118 4.060428
LeftShoulder 6.471865 -38.366752 18.511092
LeftArm 30.569151 12.595765 -6.420476
LeftForeArm 17.705337 -0.000000 -1.716926
LeftHand -4.908277 -0.000000 13.737573
LeftHandThumb1 -26.253704 0.000000 33.147579
RightShoulder 2.987484 1.991605 -17.347025
RightArm 35.756132 34.216867 17.897062
RightForeArm -36.521092 0.000000 5.864179
RightHand -9.753911 -0.000000 -5.541112
RightHandThumb1 -24.326973 -0.000000 -32.862282
LeftUpLeg -24.278396 24.468877 2.221357
LeftLeg 51.083942 -0.000000 -0.000000
LeftFoot -36.999138 22.829525 -16.013960
LeftToeBase 26.555208 -0.000000 -0.000000
RightUpLeg -29.641784 -13.016256 -3.459020
RightLeg 56.131476 -0.000000 -0.000000
RightFoot -40.532167 -27.821453 19.938121
RightToeBase 21.204263 -0.000000 -0.000000
497
root 20.441796 31.975153 -16.618120 -186.377673 5.570643 -183.565146
Spine 31.223291 7.210628 -5.163259
Head -6.289557 -3.545272 4.045102
LeftShoulder 6.246093 -38.099707 18.345718
LeftArm 30.128887 12.747929 -6.311538
LeftForeArm 17.883223 -0.000000 -1.658612
LeftHand -4.830122 0.000000 13.672499
LeftHandThumb1 -26.253704 0.000000 33.147579
RightShoulder 2.919147 1.778692 -16.817046
RightArm 35.125760 34.043470 17.508231
RightForeArm -36.441862 -0.000000 5.869894
RightHand -9.604644 0.000000 -5.342947
RightHandThumb1 -24.326973 -0.000000 -32.862282
LeftUpLeg -23.271175 24.026165 2.298997
LeftLeg 49.520322 -0.000000 -0.000000
LeftFoot -36.473519 23.224808 -16.312903
LeftToeBase 26.486498 -0.000000 -0.000000
RightUpLeg -28.656079 -12.818869 -3.456216
RightLeg 54.690423 -0.000000 -0.000000
RightFoot -40.002063 -27.805843 19.913123
RightToeBase 20.815795 -0.000000 -0.000000
498
root 20.447546 32.189687 -16.720163 -186.343061 5.534990 -183.460829
Spine 30.296599 7.115511 -5.158500
Head -5.622809 -3.524153 4.038156
LeftShoulder 5.989990 -37.863427 18.201301
LeftArm 29.689094 12.883702 -6.264765
LeftForeArm 17.952706 0.000000 -1.549757
LeftHand -4.906358 -0.000000 13.632496
LeftHandThumb1 -26.253704 0.000000 33.147579
RightShoulder 2.829187 1.554036 -16.425960
RightArm 34.399733 33.890757 17.276183
RightForeArm -36.386905 -0.000000 6.072617
RightHand -9.536607 0.000000 -5.219905
RightHandThumb1 -24.326973 -0.000000 -32.862282
LeftUpLeg -22.288417 23.581579 2.417533
LeftLeg 47.976315 -0.000000 -0.000000
LeftFoot -35.951382 23.572316 -16.518817
LeftToeBase 26.355192 -0.000000 -0.000000
RightUpLeg -27.680388 -12.587641 -3.407976
RightLeg 53.248324 -0.000000 -0.000000
RightFoot -39.475817 -27.844260 19.865760
RightToeBase 20.547505 -0.000000 -0.000000
499
root 20.453786 32.397679 -16.821896 -186.300464 5.544556 -183.363381
Spine 29.354494 7.096298 -5.144241
Head -4.879024 -3.506157 4.028543
LeftShoulder 5.731367 -37.516709 18.103699
LeftArm 29.265397 12.911440 -6.258928
LeftForeArm 18.007643 -0.000000 -1.391895
LeftHand -5.035959 -0.000000 13.594805
LeftHandThumb1 -26.253704 0.000000 33.147579
RightShoulder 2.716660 1.356402 -15.948974
RightArm 33.668466 33.713335 16.914543
RightForeArm -36.352150 -0.000000 6.220064
RightHand -9.496828 0.000000 -5.112587
RightHandThumb1 -24.326973 -0.000000 -32.862282
LeftUpLeg -21.345828 23.182280 2.521653
LeftLeg 46.480418 -0.000000 -0.000000
LeftFoot -35.407918 23.907360 -16.788126
LeftToeBase 26.140841 -0.000000 -0.000000
RightUpLeg -26.739176 -12.330342 -3.346639
RightLeg 51.806307 -0.000000 -0.000000
RightFoot -38.967593 -27.982251 19.852001
RightToeBase 20.022022 -0.000000 -0.000000
500
root 20.460426 32.600160 -16.923004 -186.253864 5.535485 -183.244686
Spine 28.428401 7.041428 -5.077809
Head -4.095024 -3.497132 3.935751
LeftShoulder 5.620037 -37.360262 17.979023
LeftArm 28.595920 13.108499 -6.334233
LeftForeArm 18.132900 -0.000000 -1.202049
LeftHand -5.011589 -0.000000 13.652258
LeftHandThumb1 -26.253704 0.000000 33.147579
RightShoulder 2.484579 1.028481 -15.533286
RightArm 33.203429 33.697657 16.753586
RightForeArm -36.414643 -0.000000 6.323472
RightHand -9.537808 -0.000000 -5.013180
RightHandThumb1 -24.326973 -0.000000 -32.862282
LeftUpLeg -20.412426 22.776557 2.640474
LeftLeg 44.982812 -0.000000 -0.000000
LeftFoot -34.881991 24.252759 -17.037816
LeftToeBase 25.955412 -0.000000 -0.000000
RightUpLeg -25.790677 -12.058707 -3.262305
RightLeg 50.358975 -0.000000 -0.000000
RightFoot -38.493107 -28.129922 19.883355
RightToeBase 19.371213 -0.000000 -0.000000
501
root 20.466866 32.795886 -17.024246 -186.170996 5.508047 -183.108150
Spine 27.459175 6.949587 -5.037809
Head -3.338133 -3.408885 3.922301
LeftShoulder 5.295795 -37.059199 17.890859
LeftArm 28.303736 13.393919 -6.185057
LeftForeArm 18.007221 0.000000 -1.156477
LeftHand -5.108175 -0.000000 13.478139
LeftHandThumb1 -26.253704 0.000000 33.147579
RightShoulder 2.349610 0.818852 -15.095538
RightArm 32.548987 33.574761 16.491126
RightForeArm -36.522805 -0.000000 6.463266
RightHand -9.595975 -0.000000 -4.927830
RightHandThumb1 -24.326973 -0.000000 -32.862282
LeftUpLeg -19.533577 22.353809 2.772237
LeftLeg 43.518106 -0.000000 -0.000000
LeftFoot -34.383190 24.553729 -17.257741
LeftToeBase 25.730224 -0.000000 -0.000000
RightUpLeg -24.880372 -11.801512 -3.148689
RightLeg 48.920770 -0.000000 -0.000000
RightFoot -38.048172 -28.281637 19.905961
RightToeBase 18.727108 -0.000000 -0.000000
